<svg width="175" height="75" viewBox="0 0 175 75" fill="none" xmlns="http://www.w3.org/2000/svg">
<path d="M150.613 54.5921C147.413 54.5921 144.512 53.8881 141.909 52.4801C139.349 51.0294 137.322 49.0667 135.829 46.5921C134.336 44.1174 133.589 41.3441 133.589 38.2721C133.589 35.2001 134.336 32.4481 135.829 30.0161C137.322 27.5841 139.349 25.6641 141.909 24.2561C144.469 22.8054 147.37 22.0801 150.613 22.0801C153.856 22.0801 156.757 22.7841 159.317 24.1921C161.877 25.6001 163.904 27.5414 165.397 30.0161C166.89 32.4481 167.637 35.2001 167.637 38.2721C167.637 41.3441 166.89 44.1174 165.397 46.5921C163.904 49.0667 161.877 51.0294 159.317 52.4801C156.757 53.8881 153.856 54.5921 150.613 54.5921ZM150.613 45.6961C152.021 45.6961 153.258 45.3974 154.325 44.8001C155.392 44.1601 156.202 43.2854 156.757 42.1761C157.354 41.0241 157.653 39.7227 157.653 38.2721C157.653 36.8214 157.354 35.5627 156.757 34.4961C156.16 33.3867 155.328 32.5334 154.261 31.9361C153.237 31.2961 152.021 30.9761 150.613 30.9761C149.248 30.9761 148.032 31.2961 146.965 31.9361C145.898 32.5334 145.066 33.3867 144.469 34.4961C143.872 35.6054 143.573 36.8854 143.573 38.3361C143.573 39.7441 143.872 41.0241 144.469 42.1761C145.066 43.2854 145.898 44.1601 146.965 44.8001C148.032 45.3974 149.248 45.6961 150.613 45.6961Z" fill="#FF3F3F"/>
<path d="M112.086 67.84C108.673 67.84 105.665 67.2427 103.062 66.048C100.502 64.896 98.4752 63.2534 96.9819 61.12L102.998 55.104C104.107 56.4267 105.345 57.4294 106.71 58.112C108.118 58.7947 109.803 59.136 111.766 59.136C114.198 59.136 116.097 58.5387 117.462 57.344C118.87 56.1494 119.574 54.464 119.574 52.288V44.352L121.238 37.568L119.766 30.784V22.784H129.366V52.032C129.366 55.232 128.619 58.0054 127.126 60.352C125.633 62.6987 123.585 64.5334 120.982 65.856C118.379 67.1787 115.414 67.84 112.086 67.84ZM111.638 52.928C108.779 52.928 106.241 52.2454 104.022 50.88C101.803 49.5147 100.054 47.6587 98.7739 45.312C97.4939 42.9654 96.8539 40.3627 96.8539 37.504C96.8539 34.6027 97.4939 32 98.7739 29.696C100.054 27.3494 101.803 25.5147 104.022 24.192C106.241 22.8267 108.779 22.144 111.638 22.144C113.771 22.144 115.67 22.5494 117.334 23.36C119.041 24.128 120.406 25.2374 121.43 26.688C122.497 28.096 123.094 29.7387 123.222 31.616V43.456C123.094 45.2907 122.497 46.9334 121.43 48.384C120.406 49.792 119.041 50.9014 117.334 51.712C115.627 52.5227 113.729 52.928 111.638 52.928ZM113.494 44.224C114.859 44.224 116.033 43.9254 117.014 43.328C118.038 42.7307 118.806 41.9414 119.318 40.96C119.873 39.936 120.15 38.784 120.15 37.504C120.15 36.224 119.873 35.072 119.318 34.048C118.806 33.024 118.038 32.2134 117.014 31.616C116.033 31.0187 114.859 30.72 113.494 30.72C112.171 30.72 110.998 31.0187 109.974 31.616C108.95 32.2134 108.161 33.024 107.606 34.048C107.051 35.072 106.774 36.224 106.774 37.504C106.774 38.6987 107.051 39.8294 107.606 40.896C108.161 41.92 108.929 42.7307 109.91 43.328C110.934 43.9254 112.129 44.224 113.494 44.224Z" fill="#FF3F3F"/>
<path d="M83.4609 53.888V36.16C83.4609 34.5387 82.9489 33.2374 81.9249 32.256C80.9435 31.232 79.6849 30.72 78.1489 30.72C77.0822 30.72 76.1435 30.9547 75.3329 31.424C74.5222 31.8507 73.8822 32.4907 73.4129 33.344C72.9435 34.1547 72.7089 35.0934 72.7089 36.16L68.9329 34.304C68.9329 31.872 69.4662 29.7387 70.5329 27.904C71.5995 26.0694 73.0715 24.6614 74.9489 23.68C76.8689 22.656 79.0235 22.144 81.4129 22.144C83.7169 22.144 85.7435 22.6987 87.4929 23.808C89.2849 24.8747 90.6929 26.304 91.7169 28.096C92.7409 29.888 93.2529 31.8507 93.2529 33.984V53.888H83.4609ZM62.9169 53.888V22.784H72.7089V53.888H62.9169Z" fill="#FF3F3F"/>
<path d="M46.8694 53.8881V22.7841H56.6614V53.8881H46.8694ZM51.7974 18.4961C50.2614 18.4961 48.9814 17.9841 47.9574 16.9601C46.976 15.8935 46.4854 14.6135 46.4854 13.1201C46.4854 11.5841 46.976 10.3041 47.9574 9.28014C48.9814 8.25614 50.2614 7.74414 51.7974 7.74414C53.3334 7.74414 54.592 8.25614 55.5734 9.28014C56.5547 10.3041 57.0454 11.5841 57.0454 13.1201C57.0454 14.6135 56.5547 15.8935 55.5734 16.9601C54.592 17.9841 53.3334 18.4961 51.7974 18.4961Z" fill="#FF3F3F"/>
<path d="M15.0854 53.8881V46.0801H25.7094C27.6721 46.0801 29.2081 45.5041 30.3174 44.3521C31.4267 43.2001 31.9814 41.7921 31.9814 40.1281C31.9814 38.9761 31.7254 37.9521 31.2134 37.0561C30.7014 36.1601 29.9761 35.4561 29.0374 34.9441C28.1414 34.4321 27.0321 34.1761 25.7094 34.1761H15.0854V26.5601H24.8774C26.5414 26.5601 27.8854 26.1548 28.9094 25.3441C29.9334 24.4908 30.4454 23.2108 30.4454 21.5041C30.4454 19.8401 29.9334 18.6028 28.9094 17.7921C27.8854 16.9388 26.5414 16.5121 24.8774 16.5121H15.0854V8.7041H26.7974C29.6987 8.7041 32.1521 9.23743 34.1574 10.3041C36.2054 11.3708 37.7627 12.8001 38.8294 14.5921C39.8961 16.3841 40.4294 18.3681 40.4294 20.5441C40.4294 23.3174 39.5334 25.6641 37.7414 27.5841C35.9494 29.5041 33.3041 30.8268 29.8054 31.5521L30.0614 28.1601C33.8587 28.8854 36.7814 30.3574 38.8294 32.5761C40.9201 34.7948 41.9654 37.5254 41.9654 40.7681C41.9654 43.2428 41.3467 45.4828 40.1094 47.4881C38.9147 49.4508 37.1654 51.0081 34.8614 52.1601C32.6001 53.3121 29.8694 53.8881 26.6694 53.8881H15.0854ZM7.4054 53.8881V8.7041H17.3254V53.8881H7.4054Z" fill="#FF3F3F"/>
<path fill-rule="evenodd" clip-rule="evenodd" d="M129.366 49.3926C129.516 49.6668 129.673 49.9389 129.836 50.2087C131.961 53.7317 134.872 56.5382 138.458 58.5702L138.518 58.6041L138.578 58.6369C142.286 60.6428 146.347 61.5921 150.613 61.5921C154.903 61.5921 158.987 60.6505 162.69 58.6136L162.729 58.5922L162.768 58.5702C166.354 56.5382 169.264 53.7317 171.39 50.2087C173.584 46.5734 174.637 42.5354 174.637 38.2721C174.637 34.0194 173.589 29.9899 171.377 26.3779C169.241 22.8465 166.31 20.0495 162.69 18.0586C158.987 16.0216 154.903 15.0801 150.613 15.0801C146.302 15.0801 142.204 16.0526 138.497 18.1438C134.917 20.1207 132 22.874 129.864 26.3532C129.691 26.635 129.525 26.9193 129.366 27.206V49.3926ZM141.909 24.2561C139.349 25.6641 137.322 27.5841 135.829 30.0161C134.336 32.4481 133.589 35.2001 133.589 38.2721C133.589 41.3441 134.336 44.1174 135.829 46.5921C137.322 49.0667 139.349 51.0294 141.909 52.4801C144.512 53.8881 147.413 54.5921 150.613 54.5921C153.856 54.5921 156.757 53.8881 159.317 52.4801C161.877 51.0294 163.904 49.0667 165.397 46.5921C166.89 44.1174 167.637 41.3441 167.637 38.2721C167.637 35.2001 166.89 32.4481 165.397 30.0161C163.904 27.5414 161.877 25.6001 159.317 24.1921C156.757 22.7841 153.856 22.0801 150.613 22.0801C147.37 22.0801 144.469 22.8054 141.909 24.2561ZM154.261 31.9361C153.237 31.2961 152.021 30.9761 150.613 30.9761C149.248 30.9761 148.032 31.2961 146.965 31.9361C145.898 32.5334 145.066 33.3867 144.469 34.4961C143.872 35.6054 143.573 36.8854 143.573 38.3361C143.573 39.7441 143.872 41.0241 144.469 42.1761C145.066 43.2854 145.898 44.1601 146.965 44.8001C148.032 45.3974 149.248 45.6961 150.613 45.6961C152.021 45.6961 153.258 45.3974 154.325 44.8001C155.392 44.1601 156.202 43.2854 156.757 42.1761C157.354 41.0241 157.653 39.7227 157.653 38.2721C157.653 36.8214 157.354 35.5627 156.757 34.4961C156.16 33.3867 155.328 32.5334 154.261 31.9361ZM150.621 38.6961C150.639 38.5934 150.653 38.4553 150.653 38.2721C150.653 38.1425 150.646 38.0452 150.638 37.9762C150.63 37.9761 150.621 37.9761 150.613 37.9761C150.607 37.9761 150.601 37.9761 150.596 37.9762C150.584 38.0573 150.573 38.1751 150.573 38.3361C150.573 38.4884 150.584 38.6055 150.6 38.696C150.604 38.6961 150.609 38.6961 150.613 38.6961C150.616 38.6961 150.618 38.6961 150.621 38.6961ZM150.632 37.8148C150.633 37.8131 150.634 37.8123 150.633 37.8123Z" fill="white"/>
<path fill-rule="evenodd" clip-rule="evenodd" d="M93.2529 49.7392C93.9123 50.8074 94.6513 51.8073 95.4681 52.7343L87.8794 60.323L91.2473 65.1343C93.5151 68.374 96.5589 70.7932 100.166 72.4208C103.837 74.1011 107.864 74.84 112.086 74.84C116.361 74.84 120.438 73.9843 124.153 72.0964C127.815 70.2354 130.831 67.5675 133.032 64.1102C135.342 60.4791 136.366 56.3584 136.366 52.032V47.4264C136.18 47.1551 136.001 46.877 135.829 46.592C134.336 44.1174 133.589 41.344 133.589 38.272C133.589 35.2 134.336 32.448 135.829 30.016C136.001 29.736 136.18 29.4628 136.366 29.1964V15.784H116.897C115.187 15.3452 113.423 15.144 111.638 15.144C107.631 15.144 103.813 16.113 100.395 18.2045C97.0895 20.1855 94.491 22.939 92.6414 26.3206C92.3111 26.917 92.0115 27.5238 91.7419 28.1401C92.7492 29.9202 93.2529 31.8682 93.2529 33.984V49.7392ZM98.7739 29.696C97.4939 32 96.8539 34.6027 96.8539 37.504C96.8539 40.3627 97.4939 42.9654 98.7739 45.312C99.2593 46.2019 99.8121 47.0212 100.432 47.77C101.448 48.9958 102.645 50.0324 104.022 50.88C104.831 51.3781 105.683 51.7853 106.578 52.1017C107.446 52.4087 108.354 52.6301 109.302 52.7661C109.327 52.7697 109.352 52.7732 109.378 52.7767C110.107 52.8776 110.861 52.928 111.638 52.928C111.681 52.928 111.723 52.9279 111.766 52.9275C112.359 52.9228 112.937 52.8852 113.499 52.8147C113.535 52.8102 113.571 52.8055 113.607 52.8007C114.397 52.6953 115.157 52.5244 115.885 52.288C116.382 52.1266 116.865 51.9346 117.334 51.712C118.161 51.3193 118.907 50.8565 119.574 50.3236V52.288C119.574 53.4062 119.388 54.3948 119.016 55.2538C118.664 56.0665 118.146 56.7633 117.462 57.344C116.097 58.5387 114.198 59.136 111.766 59.136C111.723 59.136 111.68 59.1359 111.638 59.1356C109.73 59.121 108.087 58.7798 106.71 58.112C105.995 57.7545 105.315 57.3091 104.67 56.7759C104.083 56.2912 103.526 55.7339 102.998 55.104L96.9819 61.12C97.9152 62.4534 99.0569 63.5951 100.407 64.5451C101.002 64.9636 101.637 65.3449 102.312 65.689C102.557 65.8136 102.807 65.9332 103.062 66.048C105.665 67.2427 108.673 67.84 112.086 67.84C115.414 67.84 118.379 67.1787 120.982 65.856C123.585 64.5334 125.633 62.6987 127.126 60.352C128.619 58.0054 129.366 55.232 129.366 52.032V22.784H119.766V24.8739C119.052 24.2728 118.241 23.7682 117.334 23.36C116.877 23.1375 116.403 22.9455 115.91 22.784C114.932 22.4631 113.884 22.2629 112.766 22.1834C112.397 22.1571 112.021 22.144 111.638 22.144C108.779 22.144 106.241 22.8267 104.022 24.192C101.803 25.5147 100.054 27.3494 98.7739 29.696ZM116.049 43.7961C116.207 43.737 116.36 43.6718 116.51 43.6005C116.606 43.5549 116.7 43.5067 116.792 43.456C116.867 43.415 116.941 43.3724 117.014 43.328C117.164 43.2405 117.308 43.1489 117.447 43.0532C118.257 42.4953 118.881 41.7976 119.318 40.96C119.829 40.017 120.104 38.9654 120.145 37.8052C120.148 37.7056 120.15 37.6052 120.15 37.504C120.15 37.4359 120.149 37.368 120.148 37.3006C120.12 36.1017 119.843 35.0175 119.318 34.048C118.908 33.2286 118.335 32.5458 117.597 31.9996C117.413 31.8632 117.218 31.7354 117.014 31.616C116.916 31.5564 116.816 31.4998 116.714 31.4462C116.482 31.3238 116.241 31.2169 115.989 31.1255C115.54 30.9626 115.059 30.8488 114.547 30.784C114.21 30.7414 113.859 30.72 113.494 30.72C113.246 30.72 113.003 30.7305 112.766 30.7515C111.737 30.8425 110.806 31.1307 109.974 31.616C108.95 32.2134 108.161 33.024 107.606 34.048C107.051 35.072 106.774 36.224 106.774 37.504C106.774 38.6987 107.051 39.8294 107.606 40.896C108.161 41.92 108.929 42.7307 109.91 43.328C110.697 43.7872 111.585 44.0699 112.574 44.1761C112.871 44.2081 113.178 44.224 113.494 44.224C114.437 44.224 115.289 44.0814 116.049 43.7961ZM113.697 37.4772C113.692 37.4709 113.686 37.4644 113.68 37.4578C113.663 37.4408 113.648 37.4256 113.633 37.4123C113.597 37.3802 113.567 37.3591 113.55 37.3487L113.397 37.5988C113.417 37.6146 113.434 37.6275 113.449 37.6376C113.462 37.6449 113.476 37.6518 113.489 37.6582C113.491 37.659 113.492 37.6597 113.494 37.6605C113.496 37.6614 113.498 37.6623 113.5 37.6632C113.5 37.663 113.501 37.6627 113.501 37.6625C113.505 37.66 113.522 37.6497 113.546 37.6307C113.568 37.6132 113.597 37.5884 113.629 37.5554C113.633 37.5516 113.636 37.5479 113.64 37.5441C113.653 37.5305 113.665 37.5171 113.676 37.504C113.683 37.4949 113.691 37.4859 113.697 37.4772ZM113.302 37.5128L113.394 37.3549C113.391 37.358 113.387 37.3611 113.384 37.3644C113.372 37.375 113.36 37.3867 113.348 37.3996C113.345 37.4019 113.343 37.4042 113.341 37.4066C113.317 37.4309 113.294 37.4562 113.273 37.4824C113.274 37.4837 113.275 37.485 113.276 37.4863C113.282 37.4924 113.288 37.4983 113.293 37.504C113.296 37.507 113.299 37.5099 113.302 37.5128Z" fill="white"/>
<path fill-rule="evenodd" clip-rule="evenodd" d="M55.9169 53.888V60.888H97.2139L100.253 57.8491V47.5489C99.7049 46.8607 99.2119 46.1151 98.7739 45.312C97.4939 42.9654 96.8539 40.3627 96.8539 37.504C96.8539 36.2773 96.9683 35.104 97.1971 33.984C97.5095 32.4552 98.0351 31.0259 98.7739 29.696C98.9929 29.2945 99.2257 28.9079 99.4722 28.5363C99.0702 27.1865 98.5119 25.8783 97.7946 24.6231C96.1809 21.7992 93.9365 19.516 91.1564 17.8428C88.1843 15.9819 84.8575 15.144 81.4129 15.144C79.6063 15.144 77.833 15.351 76.1155 15.784H56.4116C56.2703 16.0503 56.1054 16.3063 55.9169 16.552V22.784H56.6614V53.888H55.9169ZM79.7089 22.2352C78.7944 22.3354 77.9179 22.5184 77.0793 22.784C76.3397 23.0184 75.6295 23.317 74.9489 23.68C74.4545 23.9385 73.9883 24.2265 73.5501 24.5441C73.2571 24.7564 72.9767 24.982 72.7089 25.2208V22.784H62.9169V53.888H72.7089V36.16C72.7089 35.491 72.8012 34.8724 72.9858 34.304C73.0956 33.9663 73.2379 33.6463 73.4129 33.344C73.7982 32.6434 74.2986 32.0866 74.9141 31.6736C75.0482 31.5836 75.1878 31.5004 75.3329 31.424C75.5525 31.2969 75.7816 31.1869 76.02 31.0942C76.3323 30.9728 76.6608 30.8809 77.0054 30.8186C77.3686 30.7529 77.7498 30.72 78.1489 30.72C78.7053 30.72 79.2253 30.7872 79.7089 30.9216C80.5603 31.1582 81.299 31.603 81.9249 32.256C82.9489 33.2374 83.4609 34.5387 83.4609 36.16V53.888H93.2529V33.984C93.2529 31.8507 92.7409 29.888 91.7169 28.096C90.6929 26.304 89.2849 24.8747 87.4929 23.808C85.7435 22.6987 83.7169 22.144 81.4129 22.144C80.831 22.144 80.263 22.1744 79.7089 22.2352Z" fill="white"/>
<path fill-rule="evenodd" clip-rule="evenodd" d="M39.8694 60.8881V47.8657C39.9517 47.7416 40.0317 47.6157 40.1094 47.4881C41.3467 45.4828 41.9654 43.2428 41.9654 40.7681C41.9654 38.1171 41.2667 35.8083 39.8694 33.8418V24.075C40.0125 23.6578 40.1282 23.2275 40.2165 22.7841C40.3584 22.0713 40.4294 21.3246 40.4294 20.5441C40.4294 19.2568 40.2427 18.0367 39.8694 16.8837V16.2855C39.6135 15.2638 39.4854 14.2036 39.4854 13.1201C39.4854 9.94337 40.5641 6.87788 42.9034 4.4368L42.955 4.38304L43.0076 4.33039C45.4302 1.90782 48.5298 0.744141 51.7974 0.744141C55.0656 0.744141 58.2087 1.91307 60.6273 4.4368C62.9666 6.87788 64.0454 9.94337 64.0454 13.1201C64.0454 14.2036 63.9172 15.2638 63.6614 16.2855V22.7841H62.9169V53.8881H63.6614V60.8881H39.8694ZM56.6614 22.7841H46.8694V53.8881H56.6614V22.7841ZM56.4116 15.7841C56.8341 14.988 57.0454 14.1 57.0454 13.1201C57.0454 11.5841 56.5547 10.3041 55.5734 9.28014C54.592 8.25614 53.3334 7.74414 51.7974 7.74414C50.2614 7.74414 48.9814 8.25614 47.9574 9.28014C46.976 10.3041 46.4854 11.5841 46.4854 13.1201C46.4854 14.1 46.6966 14.988 47.1191 15.7841C47.3405 16.2014 47.6199 16.5934 47.9574 16.9601C48.9814 17.9841 50.2614 18.4961 51.7974 18.4961C53.3334 18.4961 54.592 17.9841 55.5734 16.9601C55.9108 16.5934 56.1902 16.2014 56.4116 15.7841Z" fill="white"/>
<path fill-rule="evenodd" clip-rule="evenodd" d="M26.6694 53.8881C29.8694 53.8881 32.6001 53.3121 34.8614 52.1601C37.1654 51.0081 38.9147 49.4508 40.1094 47.4881C41.3467 45.4828 41.9654 43.2428 41.9654 40.7681C41.9654 38.4409 41.427 36.3774 40.3501 34.5776C39.9265 33.8696 39.4196 33.2025 38.8294 32.5761C38.2488 31.9472 37.598 31.3782 36.8768 30.8693C36.2824 30.4497 35.6402 30.071 34.9502 29.733C35.5397 29.4052 36.0828 29.0449 36.5795 28.652C37.0001 28.3194 37.3874 27.9634 37.7414 27.5841C38.6359 26.6257 39.3071 25.561 39.7551 24.39C40.2046 23.2151 40.4294 21.9331 40.4294 20.5441C40.4294 18.3681 39.8961 16.3841 38.8294 14.5921C37.7627 12.8001 36.2054 11.3708 34.1574 10.3041C32.1521 9.23743 29.6987 8.7041 26.7974 8.7041H7.4054V53.8881H26.6694ZM17.3254 46.0801H25.7094C27.6721 46.0801 29.2081 45.5041 30.3174 44.3521C31.4267 43.2001 31.9814 41.7921 31.9814 40.1281C31.9814 39.4766 31.8995 38.866 31.7357 38.2964C31.6099 37.8588 31.4358 37.4454 31.2134 37.0561C31.095 36.8489 30.9652 36.652 30.824 36.4653C30.4441 35.9632 29.9817 35.5354 29.4367 35.1818C29.3082 35.0985 29.1751 35.0192 29.0374 34.9441C28.9569 34.8981 28.8747 34.8542 28.7908 34.8123C27.9404 34.3882 26.9132 34.1761 25.7094 34.1761H17.3254V46.0801ZM17.3254 26.5601H24.8774C26.3632 26.5601 27.5939 26.2369 28.5695 25.5906C28.6864 25.5131 28.7998 25.4309 28.9094 25.3441C29.2504 25.0599 29.5347 24.7284 29.7621 24.3496C30.2176 23.5909 30.4454 22.6424 30.4454 21.5041C30.4454 21.3682 30.442 21.2351 30.4352 21.1049C30.3584 19.6408 29.8498 18.5366 28.9094 17.7921C27.8854 16.9388 26.5414 16.5121 24.8774 16.5121H17.3254V26.5601ZM45.1738 29.2428C45.9306 27.9311 46.4946 26.5373 46.8694 25.0807V22.7841H47.2981C47.3858 22.0492 47.4294 21.3018 47.4294 20.5441C47.4294 17.1649 46.5844 13.9349 44.8444 11.0117C43.0479 7.9935 40.4793 5.70962 37.4172 4.10943C34.1646 2.38633 30.5248 1.7041 26.7974 1.7041H0.405396V60.8881H26.6694C30.6837 60.8881 34.5527 60.1677 38.0154 58.4093C41.3332 56.7457 44.1233 54.3485 46.0777 51.1459C46.3632 50.6822 46.627 50.2108 46.8694 49.7323V31.8987C46.3885 30.9767 45.8237 30.0897 45.1738 29.2428Z" fill="white"/>
</svg>
